<svg width="36" height="36" viewBox="0 0 36 36" fill="none" xmlns="http://www.w3.org/2000/svg">
<g clip-path="url(#clip0)">
<path d="M34.6665 30.087L27.201 22.6215C28.6485 20.3415 29.4855 17.6385 29.4855 14.745C29.4855 6.615 22.872 0 14.742 0C6.612 0 0 6.615 0 14.745C0 22.875 6.612 29.49 14.7435 29.49C17.4945 29.49 20.0715 28.7325 22.2765 27.4155L29.808 34.947C33.024 38.1585 37.884 33.303 34.6665 30.087ZM4.5705 14.745C4.5705 9.1365 9.135 4.572 14.7435 4.572C20.352 4.572 24.9165 9.135 24.9165 14.745C24.9165 20.355 20.352 24.918 14.7435 24.918C9.135 24.918 4.5705 20.3535 4.5705 14.745V14.745ZM7.5855 12.099C10.5615 5.2005 20.5815 6 22.4685 13.2225C18.6675 8.7615 11.979 8.2815 7.5855 12.099Z" fill="white"/>
</g>
<defs>
<clipPath id="clip0">
<rect width="36" height="36" fill="white"/>
</clipPath>
</defs>
</svg>
